<?xml version="1.0" encoding="utf-8"?>
<!-- Generator: Adobe Illustrator 21.0.1, SVG Export Plug-In . SVG Version: 6.00 Build 0)  -->
<svg version="1.1" id="Camada_1" xmlns="http://www.w3.org/2000/svg" xmlns:xlink="http://www.w3.org/1999/xlink" x="0px" y="0px"
	 viewBox="0 0 829.1 355.4" style="enable-background:new 0 0 829.1 355.4;" xml:space="preserve">
<style type="text/css">
	.st0{fill-rule:evenodd;clip-rule:evenodd;fill:#2E9647;}
	.st1{fill-rule:evenodd;clip-rule:evenodd;fill:#FFFFFF;}
	.st2{fill:#FFFFFF;}
</style>
<g>
	<path class="st0" d="M62.8,229.5H18.6c-5.2,0-9.6-2.4-12.6-6.9c-2.8-4.5-3.3-9.6-1.5-14.5L81.3,14.4c2.4-5.9,7.8-9.6,14.1-9.6h52.5
		c5.2,0,9.6,2.4,12.6,6.9s3.3,9.6,1.5,14.7l-53.8,133.6h23c1.7,0,3.2,0.2,4.5,0.6l28.4-70.1c0-0.4,0.2-0.6,0.2-0.7
		c3.2-6.5,6.9-12.8,11.7-18c7.2-7.6,17.8-9.5,27.8-9.5H242c4.8,0,10.2,0.4,14.8,1.5c3.7,0.9,6.9,2.4,9.8,4.6
		c2.8-3.7,7.1-5.9,11.9-5.9H335c0,0,0,0,0.2,0c9.8,0.2,20.6,2.2,27.1,9.6c0.9-0.9,1.9-1.9,3-2.6c3.9-3.2,8.5-5,13.5-5.8
		c4.1-0.7,8.5-1.1,12.6-1.3c0.2,0,0.4,0,0.7,0h36.6c8.9,0,18.2,1.5,25,6.9c2.8-4.5,7.4-7.1,12.8-7.1h69.4c4.5,0,8.3,1.7,11.3,5
		c7.1-6.9,16.3-11.1,26.2-11.1h208.7c20,0,33.4,18,28.9,37.9L767.9,285c-3.9,17.1-20,30.8-37.5,30.8H521.6
		c-10.4,0-18.9-4.8-24.3-12.2c-2.6,2-5.4,3.9-8.3,5.4c-4.1,1.9-8.3,3.3-12.6,4.5c-4.3,0.9-8.7,1.5-13.2,1.7c-1.5,0-3.2,0-4.6-0.2
		c-2.6,2-5.4,4.1-8.2,5.9c-5,3.3-10.4,6.3-16,8.7c-5.8,2.4-11.5,4.3-17.6,5.4c-6.3,1.3-12.8,1.9-19.3,0.9
		c-6.9-0.9-13.5-3.3-18.9-7.8c-1.9-1.3-3.5-3-4.8-4.6c-5.8,2.8-11.7,5.4-17.6,7.8c-7.1,2.6-14.8,4.6-22.3,4.6
		c-8.9,0-16.7-3.7-21.3-11.1c-5,2.6-10,4.8-15.4,6.9c-7.1,2.8-14.8,4.8-22.6,4.8c-9.6,0-18.4-4.3-22.6-13.4
		c-0.6-1.1-1.1-2.2-1.5-3.3c-3.3,2.2-6.9,4.3-10.6,6.3c-6.3,3.2-12.8,5.8-19.5,7.8c-7.2,2.2-14.8,3.5-22.5,3.9
		c-8.5,0.6-17.1-0.7-25.4-3.2c-7.2-2-13.7-5.8-18.6-11.5c-7.1,3.7-14.3,7.1-21.7,9.8c-10.4,3.9-21.2,6.7-32.3,8.3
		c-11.1,1.7-22.5,1.7-33.4-0.6c-9.3-1.9-18-5.6-24.9-12.2c-6.5-6.5-10.6-14.5-12.1-23.6c-1.5-8.7-0.6-17.6,1.7-26
		c2.4-9.3,6.7-18,11.9-26C48.6,244.3,55.3,236.5,62.8,229.5L62.8,229.5z"/>
	<path class="st1" d="M522,300.2h208c10.4,0,20.8-8.3,23-18.7l43.2-191.1c2.4-10.2-4.1-18.7-14.5-18.7h-208
		c-10.4,0-20.8,8.5-23,18.7l-43.2,191.1C505.1,291.8,511.6,300.2,522,300.2L522,300.2z"/>
	<path class="st2" d="M18.6,213.9L95.4,20.4h52.5L85.4,175.3h45.8L116,213.9H18.6z M199.7,132.3h8.7l10.8-27.3h-9.5L199.7,132.3z
		 M130.5,213.9l47.7-117.6c2.6-5.9,5.6-10.6,8.7-13.7c3-3.2,8.7-4.8,16.9-4.8H242c4.8,0,8.7,0.4,11.3,0.9c2.8,0.7,4.8,2,5.9,3.9
		c0.9,2,1.1,5,0.4,8.9c-0.7,3.3-2.4,8-4.8,13.5l-43.2,109.3h-36.2l22.3-54.4h-9.8l-21.5,54.4L130.5,213.9z M224.6,214.3l54-136.4
		H335c9.8,0,15.6,2.2,17.1,6.5c1.9,4.3,1.1,10.8-2.4,19.1l-44.3,110.8h-36L312.9,105h-9.1l-44,109.3H224.6z M325.7,197.6L366.5,94
		c1.3-3,2.6-5.4,3.9-7.4c1.1-2,2.4-3.7,4.1-5c1.7-1.5,3.9-2.4,6.7-2.8c2.8-0.4,6.3-0.7,10.8-0.9h36.7c9.1,0,15,1.9,17.8,5.6
		c2.6,3.5,2.2,9.5-0.9,17.4l-12.2,31.4h-35.4l10.2-27.1h-9.5l-32.8,82.2h9.5l11.3-27.5h35.6l-15.6,37.9c-2.4,6.1-5.2,10.6-8.2,13
		s-7.8,3.5-14.3,3.3h-41.9c-4.8,0.2-8.5,0.2-10.9,0c-3.3-0.4-5.4-1.1-6.7-2.2c-1.1-1.1-1.5-3-1.3-5
		C323.5,204.4,324.4,201.3,325.7,197.6L325.7,197.6z M411.8,214.1l54.7-136.4h69.4L524.2,105h-33l-10.6,27.1h32.7l-10.8,27.6h-33
		L458.2,187h33.4L481,214.1H411.8z"/>
	<path class="st2" d="M155.9,214.1c17.1-3,31-3.9,41.6-2.8c10.8,1.1,17.8,3.5,21.3,7.1c3.5,3.5,3.3,7.8-0.6,13.2
		c-4.1,5.2-11.9,10.4-23.9,15.8c-7.4,3.5-15.4,5.6-23.9,6.1c-8.3,0.7-16.3,0.7-23.8-0.2c-7.2-0.7-13.7-2.2-19.5-3.9
		c-5.6-1.9-9.3-3.5-10.9-5c-10.4,6.1-18.7,12.6-25,19.9c-6.3,7.2-10.8,13.9-13.4,20.6c-2.6,6.5-3.3,12.2-2.2,17.1
		c1.1,5,3.9,8.3,8.5,10c4.1,1.5,8.5,2.2,13.5,2.2c5,0.2,10.2-0.4,15.6-1.3c5.2-1.1,10.6-2.4,16-4.3c5.2-1.7,10.2-3.5,14.8-5.4
		s8.7-3.9,12.4-5.8c3.5-1.9,6.5-3.5,8.7-4.8c2.4-1.7,4.8-2.8,7.1-3.3c2-0.6,3.7-0.7,5-0.4c1.1,0.2,1.7,0.9,1.5,1.9
		c0,1.1-1.1,2.2-3,3.7c-6.1,4.8-13.4,9.6-21.9,14.1c-8.3,4.6-17.4,8.3-26.9,11.7c-9.6,3.2-19.3,5.4-29.3,6.9
		c-9.8,1.3-19.3,1.1-28.4-0.6c-7.2-1.3-13-3.7-17.1-7.2c-4.1-3.7-6.7-8.2-7.6-13.4c-1.1-5.2-0.6-10.9,1.3-17.3
		c1.9-6.3,5.2-12.6,9.8-19.3c4.6-6.5,10.8-12.8,18.4-18.9c7.4-6.3,16.1-11.9,26.5-17.1c-4.5-3.5-7.4-7.2-9.3-11.5
		c-1.7-4.1-1.1-8.2,1.9-12.4c1.9-3,5-5,9.1-6.3c4.1-1.3,8.3-2,12.6-2c4.5,0.2,8.3,0.7,12.2,2c3.7,1.3,6.1,3.2,7.2,5.6
		c-2.8,0.6-5,1.3-6.7,2.6c-1.9,1.3-3.3,2.8-4.5,4.5c-1.1,1.5-2,3.2-2.4,4.6c-0.4,1.7-0.6,2.8-0.6,3.9c5.6-2.2,11.1-4.1,17.1-5.9
		C143.3,216.7,149.4,215.2,155.9,214.1L155.9,214.1z M182.2,240.6c4.8-2.4,7.8-4.8,8.5-7.1c0.7-2.4-0.2-4.3-2.6-5.8
		c-2.6-1.5-6.7-2.2-12.2-2.4c-5.4-0.2-12.1,0.7-19.7,2.6c-10.6,2.8-20,6.3-28.4,10.2c0.9,0.6,3.2,1.7,6.9,3
		c3.7,1.5,8.2,2.6,13.4,3.3c5.2,0.7,10.9,0.9,17.1,0.6C171.1,244.7,176.9,243.2,182.2,240.6L182.2,240.6z M252.4,292.6
		c2-1.7,3.9-2.8,5.9-3.5c1.9-0.6,3.5-0.9,5-0.6c1.3,0.2,2,0.7,2.2,1.7c0,1.1-0.7,2.6-2.6,4.3c-1.1,1.3-3.2,3-5.9,5.2
		c-3,2.4-6.3,4.8-10.4,7.4c-4.1,2.6-8.7,5.2-13.9,7.6c-5.2,2.6-10.8,4.6-16.7,6.1c-6.1,1.7-12.4,2.6-18.9,3
		c-6.5,0.4-13.4-0.6-20.4-2.2c-5.8-1.5-9.8-3.9-12.2-7.2c-2.2-3.2-3.3-6.9-2.8-11.1c0.4-4.1,1.9-8.5,4.8-13.2
		c2.8-4.6,6.5-9.1,10.9-13.4c4.5-3.9,9.5-7.4,15-10.8c5.8-3.3,11.7-5.8,18-7.6c6.1-1.9,12.4-2.8,18.6-3c6.3,0,12.4,1.1,18,3.3
		c4.3,1.5,7.2,3.5,8.9,6.1c1.9,2.6,2,5.2,0.7,8c-1.3,2.8-4.3,5.8-8.9,8.5c-4.6,2.8-11.1,5.2-19.5,7.4c-3.7,0.9-7.6,1.7-11.5,2
		c-4.1,0.4-7.8,0.6-11.3,0.7c-3.5,0-6.9-0.2-9.8-0.4c-3-0.2-5.6-0.4-7.8-0.6c-0.6,1.7-1.1,3.5-1.9,5.6c-0.6,1.9-0.7,3.7-0.7,5.6
		c0,1.9,0.4,3.5,1.3,5c0.9,1.3,2.4,2.4,4.8,3.2c5.2,1.5,10.8,1.7,17.1,0.6c6.3-0.9,12.4-2.4,18.2-4.6c5.8-2,11.1-4.3,15.8-6.9
		C247,296.3,250.3,294.2,252.4,292.6L252.4,292.6z M230.9,268.6c-2.4-0.9-5.4-1.1-9.1-0.7c-3.5,0.4-7.2,1.3-11.1,2.8
		c-3.9,1.5-7.4,3.5-10.9,5.9c-3.3,2.6-5.9,5.2-7.8,8.2c2,0.2,4.8,0.2,8.7,0.2s8.5-0.6,14.3-1.7c5.6-1.1,9.8-2.4,12.6-3.9
		c3-1.3,5-2.8,6.1-4.1c1.1-1.5,1.3-2.8,0.6-3.9C233.6,270.3,232.3,269.4,230.9,268.6L230.9,268.6z M328.1,292.6
		c2.4-1.7,4.6-2.8,6.7-3.3c2-0.6,3.7-0.7,5-0.6c1.3,0.2,1.9,0.9,1.9,1.9s-0.9,2.2-2.8,3.9c-2,1.9-5.6,4.3-10.8,7.2
		c-5,3.2-10.8,6.3-17.1,9.3c-6.3,3.2-12.6,5.9-19.3,8.2c-6.5,2.4-12.2,3.5-17.3,3.5c-4.5,0-7.6-1.5-9.1-4.5
		c-1.7-2.8-1.1-6.7,1.1-11.5c2.4-4.8,6.9-10.4,13.5-16.7c6.5-6.3,15.6-13,27.3-19.9c-2.6,0.2-5.2,0.2-7.8,0.2
		c-2.6-0.2-5.2-0.4-8-0.7c-3.3,3.5-7.4,7.6-12.2,12.1c-5,4.5-10.4,8.7-16.3,12.8c-3,2-5.4,3.3-7.6,3.9c-2.2,0.4-3.9,0.4-4.8,0
		c-1.1-0.4-1.7-1.1-1.5-2.2c0.4-1.1,1.3-2.2,3.3-3.5c6.9-4.5,12.8-8.9,17.6-13.2c4.6-4.5,8.5-8.2,11.5-11.5
		c-5.4-1.7-8.5-3.9-9.1-6.7c-0.6-2.8,0.2-5.4,2.6-7.8c2.2-2.6,5.4-4.6,9.6-6.1c4.3-1.7,8.3-2,12.6-1.1c2.8,0.6,5,1.3,6.1,2.4
		c1.1,1.1,1.7,2.2,1.7,3.7c0,1.3-0.4,2.6-1.5,4.1c-0.9,1.5-2,3-3.5,4.5c1.3,0.7,2.8,1.1,4.6,1.3c1.9,0,3.9,0,5.9-0.2
		c2-0.2,4.1-0.4,5.9-0.7c2-0.6,3.5-0.9,4.8-1.3c0.6,0,1.5,0,2.6,0.4c1.1,0.4,2.4,0.7,3.3,1.3c1.1,0.6,2,1.1,2.6,1.7
		c0.6,0.6,0.6,1.1,0,1.5c-2.8,1.5-5.8,3.3-8.9,5.8c-3.2,2.4-6.1,5-9.3,7.8c-3,2.8-5.8,5.6-8.3,8.3c-2.6,3-4.8,5.6-6.5,8
		c-1.9,2.6-3,4.6-3.5,6.5c-0.6,1.9-0.4,3,0.9,3.7c0.9,0.6,2.8,0.4,5.6-0.2c2.8-0.6,5.8-1.5,9.3-2.8c3.3-1.3,6.9-2.8,10.4-4.5
		C322.9,295.7,325.9,294.2,328.1,292.6L328.1,292.6z M347,238c4.5-0.2,9.1-0.4,13.9-0.6c4.6-0.2,9.5-0.4,14.1-0.6
		c5.4-3.9,10.8-7.4,16.1-10.6c5.6-3.2,10.9-5.6,16.1-7.6c5.2-1.9,10.2-3.2,14.8-3.5c4.5-0.6,8.5,0,12.1,1.3c2.6,0.9,3,3.2,0.9,6.5
		c-1.9,3.3-5.6,7.6-10.9,12.4l27.8-0.6c2.6-0.2,3.7,0.4,3.7,1.7c0,1.3-0.7,2.6-2.4,4.1c-1.7,1.5-3.9,2.8-6.9,3.9
		c-2.8,0.9-5.8,1.3-8.5,0.9c-2.2-0.2-5.4-0.6-9.3-0.9c-3.9-0.4-8.5-0.7-13.7-1.1c-8.2,6.5-17.8,13.4-28.9,20.8
		c-11.3,7.2-23.4,14.3-36.4,21.2c-1.5,3.2-2.4,5.9-3,8.3c-0.4,2.6-0.4,4.8,0,6.5c0.6,1.9,1.3,3.2,2.2,4.1c1.1,0.9,2.2,1.5,3.5,1.7
		c1.3,0,3.5-0.2,6.5-0.9c3.2-0.7,6.5-1.9,10-3.2c3.5-1.3,7.1-2.8,10.4-4.5c3.5-1.7,6.3-3.2,8.7-4.8c2.4-1.7,4.6-2.8,6.7-3.3
		c2-0.6,3.7-0.7,5-0.6s1.9,0.9,1.9,1.9s-0.9,2.2-3,3.9c-1.9,1.9-5.6,4.1-10.8,7.2c-5.2,3-10.9,6.1-17.4,9.1
		c-6.5,3.2-13.2,5.8-19.7,8c-6.7,2.2-12.2,3.3-16.9,3.3c-4.8,0-8-1.7-9.3-5c-1.5-3.3-1.7-7.8-0.4-13.2c1.3-5.6,3.7-11.7,7.4-18.6
		c3.5-6.9,8.2-13.7,13.9-20.6c3-3.9,6.3-7.6,10-11.1c3.7-3.7,7.6-7.2,11.9-10.6c-4.5,0.2-8.5,0.4-12.8,0.6
		c-4.1,0.2-8.2,0.6-12.1,1.1c-1.5,0.2-2.6,0-3.3-0.6c-0.7-0.7-0.9-1.5-0.4-2.2c0.4-0.9,1.1-1.7,2.6-2.6
		C342.7,238.6,344.6,238.2,347,238L347,238z M361.1,265.8c-0.9,1.3-1.7,2.2-2.4,3c-0.7,0.7-1.3,1.5-1.9,2c-0.7,0.7-1.3,1.3-1.7,2.2
		c-0.6,0.7-1.1,1.5-1.7,2.6c9.8-5.9,18.7-11.7,26.9-17.3c8-5.8,14.8-10.8,20.2-15.4c-2.2-0.2-4.8-0.2-7.2-0.4c-2.6,0-5.2,0-7.8,0
		C377.1,249,368.9,256.8,361.1,265.8L361.1,265.8z M413.1,229.5c-5.2,0.7-10.9,3-17.6,6.7c2.2,0,4.5-0.2,6.5-0.2c2.2,0,4.3,0,6.5,0
		c1.3-1.3,2.4-2.6,3-3.5C412.1,231.3,412.7,230.4,413.1,229.5L413.1,229.5z M479.5,292.6c1.9-1.7,3.9-2.8,5.9-3.3
		c2-0.7,3.7-0.9,5-0.7c1.3,0.2,2,0.7,2.2,1.9c0.2,1.1-0.7,2.4-2.6,4.1c-2.2,2-4.8,3.5-7.6,4.8c-3,1.3-6.1,2.4-9.5,3
		c-3.3,0.7-6.7,1.1-10,1.1c-3.3,0.2-6.5-0.2-9.3-0.7c-3.3,2.8-7.2,5.6-11.5,8.2c-4.5,2.6-9.1,4.8-13.7,6.7
		c-4.8,1.9-9.6,3.2-14.7,4.1s-9.8,1.1-14.3,0.6c-5-0.6-8.7-2-11.7-3.9c-2.8-2-4.6-4.6-5.4-7.8c-0.7-3.2-0.4-6.7,1.3-10.8
		c1.7-3.9,4.6-8.2,8.9-12.8c6.9-7.4,14.3-13,22.3-16.9c7.8-3.9,15.4-6.7,22.6-8.3c5-1.1,10.2-1.9,15.4-2c5.2-0.2,9.8,0.4,13.5,1.3
		c3.7,1.1,6.1,2.6,7.4,4.8c1.3,2,0.6,4.8-2.2,8.3c2,2,1.9,5.2-0.7,9.3c-2.4,4.1-5.8,8.3-10.2,12.8c2.6,0.9,5.8,1.1,9.3,0.6
		C473.6,296.3,476.7,294.8,479.5,292.6L479.5,292.6z M415.7,307.6c2,0.4,4.5,0.4,7.1-0.2c2.8-0.6,5.6-1.1,8.3-1.9
		c2.8-0.9,5.4-1.9,7.6-3c2.4-1.1,4.3-2.2,5.6-3.2c-2.8-1.9-4.5-4.1-4.5-6.7c-0.2-2.8,0.7-5.4,2.4-8s3.9-5,6.7-7.4
		c2.8-2.2,5.9-3.9,9.1-5c2.4-0.9,3.9-2,4.3-3c0.2-1.1-0.2-2-1.5-2.8c-1.3-0.7-3.3-1.3-5.8-1.5c-2.6-0.2-5.4,0.2-8.5,0.9
		c-5.4,1.5-10.8,3.7-16.1,6.9c-5.4,3-9.8,6.5-13.4,10.4c-2.4,2.8-4.3,5.6-5.8,8.2c-1.5,2.8-2.2,5.4-2.4,7.6
		c-0.2,2.2,0.4,4.3,1.5,5.8C411.4,306.5,413.3,307.4,415.7,307.6L415.7,307.6z"/>
	<path class="st0" d="M602,282.9c-10.2-38.2-31.5-69.4-60.5-96.3c15-8.3,27.8-20,38.6-35.1c14.5,22.3,28.2,44.7,36.4,70.1
		C666.5,158.6,724.2,120.2,784,88.8c-13.4,17.6-25.8,35.6-31.2,57.3C694.2,182.5,645.2,229.5,602,282.9L602,282.9z"/>
</g>
</svg>
